<?xml version="1.0"?>
<!DOCTYPE svg PUBLIC "-//W3C//DTD SVG 1.1//EN" "http://www.w3.org/Graphics/SVG/1.1/DTD/svg11.dtd">
<svg xmlns="http://www.w3.org/2000/svg" xmlns:xl="http://www.w3.org/1999/xlink" version="1.1" viewBox="577 65 505 425" width="505pt" height="425pt"><metadata xmlns:dc="http://purl.org/dc/elements/1.1/"><dc:date>2010-12-09 20:30Z</dc:date><!-- Produced by OmniGraffle Professional 4.2.3 beta 1 --></metadata><defs><filter id="Shadow" filterUnits="userSpaceOnUse"><feGaussianBlur in="SourceAlpha" result="blur" stdDeviation="3.488"/><feOffset in="blur" result="offset" dx="0" dy="4"/><feFlood flood-color="black" flood-opacity=".75" result="flood"/><feComposite in="flood" in2="offset" operator="in"/></filter><marker orient="auto" overflow="visible" markerUnits="strokeWidth" id="FilledArrow_Marker" viewBox="-1 -2 5 4" markerWidth="5" markerHeight="4" color="white"><g><path d="M 2.0266666 0 L 0 -.76 L 0 .76 Z" fill="currentColor" stroke="currentColor" stroke-width="1"/></g></marker><marker orient="auto" overflow="visible" markerUnits="strokeWidth" id="FilledArrow_Marker_2" viewBox="-4 -2 5 4" markerWidth="5" markerHeight="4" color="white"><g><path d="M -2.0266666 0 L 0 .76 L 0 -.76 Z" fill="currentColor" stroke="currentColor" stroke-width="1"/></g></marker><marker orient="auto" overflow="visible" markerUnits="strokeWidth" id="FilledArrow_Marker_3" viewBox="-1 -2 5 4" markerWidth="5" markerHeight="4" color="red"><g><path d="M 2.0266666 0 L 0 -.76 L 0 .76 Z" fill="currentColor" stroke="currentColor" stroke-width="1"/></g></marker><marker orient="auto" overflow="visible" markerUnits="strokeWidth" id="FilledArrow_Marker_4" viewBox="-4 -2 5 4" markerWidth="5" markerHeight="4" color="red"><g><path d="M -2.0266666 0 L 0 .76 L 0 -.76 Z" fill="currentColor" stroke="currentColor" stroke-width="1"/></g></marker><radialGradient cx="0" cy="0" r="1" id="Gradient" gradientUnits="userSpaceOnUse"><stop offset="0" stop-color="#595959" stop-opacity=".2"/><stop offset="1" stop-color="black" stop-opacity=".41999999"/></radialGradient><radialGradient id="Obj_Gradient" xl:href="#Gradient" gradientTransform="translate(818.76 273.5) scale(307.19253)"/><linearGradient x1="0" x2="1" id="Gradient_2" gradientUnits="userSpaceOnUse"><stop offset="0" stop-color="#adadad" stop-opacity="0"/><stop offset="1" stop-color="#b4b4b4" stop-opacity=".48"/></linearGradient><linearGradient id="Obj_Gradient_2" xl:href="#Gradient_2" gradientTransform="translate(877.1438 400.1551) rotate(-107.00001) scale(399.38022)"/><radialGradient cx="0" cy="0" r="1" id="Gradient_3" gradientUnits="userSpaceOnUse"><stop offset="0" stop-color="white" stop-opacity=".2"/><stop offset="1" stop-color="white" stop-opacity="0"/></radialGradient><radialGradient id="Obj_Gradient_3" xl:href="#Gradient_3" gradientTransform="translate(818.76 273.5) scale(307.19253)"/></defs><g stroke="none" stroke-opacity="1" stroke-dasharray="none" fill="none" fill-opacity="1"><title>Canvas 1</title><g><title>Layer 1</title><g><use xl:href="#id70_Graphic" filter="url(#Shadow)"/><use xl:href="#id75_Graphic" filter="url(#Shadow)"/><use xl:href="#id76_Graphic" filter="url(#Shadow)"/><use xl:href="#id77_Graphic" filter="url(#Shadow)"/></g><g id="id70_Graphic"><path d="M 637.76 71 L 999.76 71 C 1027.37427 71 1049.76 93.385765 1049.76 121 L 1049.76 426 C 1049.76 453.61423 1027.37427 476 999.76 476 L 637.76 476 C 610.14575 476 587.76 453.61423 587.76 426 C 587.76 426 587.76 426 587.76 426 L 587.76 121 C 587.76 93.385765 610.14575 71 637.76 71 Z" fill="black"/></g><path d="M 652.705 195.924 C 688.9254 192.77731 724.4477 198.56229 761.377 186.483 C 798.30634 174.40372 833.24323 135.520294 874.303 123.441 C 899.68463 115.97402 927.6863 115.33345 955.87695 115.189644" marker-end="url(#FilledArrow_Marker)" stroke="white" stroke-linecap="round" stroke-linejoin="round" stroke-width="15"/><path d="M 673.64282 352.89746 C 704.1985 352.77368 734.59216 352.32156 761.377 344.634 C 803.4633 332.55472 838.671 293.67227 874.303 281.59299 C 909.93494 269.5137 941.56433 275.298 975.19 272.151" marker-start="url(#FilledArrow_Marker_2)" stroke="white" stroke-linecap="round" stroke-linejoin="round" stroke-width="15"/><path d="M 673.64282 194.79607 C 704.1985 194.95467 734.5923 195.43549 761.377 203.017 C 803.46313 214.92964 833.24225 253.14635 874.302 265.05899 C 899.68365 272.42294 927.68555 273.08789 955.87646 273.26529" marker-end="url(#FilledArrow_Marker_3)" marker-start="url(#FilledArrow_Marker_4)" stroke="red" stroke-linecap="round" stroke-linejoin="round" stroke-width="15"/><path d="M 652.6668 352.06183 C 688.8872 355.20853 724.4095 349.42358 761.3388 361.50287 C 798.26813 373.58215 833.205 412.46558 874.26477 424.54486 C 899.6464 432.01184 927.64807 432.6524 955.83875 432.7962" marker-end="url(#FilledArrow_Marker)" stroke="white" stroke-linecap="round" stroke-linejoin="round" stroke-width="15"/><g id="id75_Graphic"><path d="M 637.76 71 L 999.76 71 C 1027.37427 71 1049.76 93.385765 1049.76 121 L 1049.76 426 C 1049.76 453.61423 1027.37427 476 999.76 476 L 637.76 476 C 610.14575 476 587.76 453.61423 587.76 426 C 587.76 426 587.76 426 587.76 426 L 587.76 121 C 587.76 93.385765 610.14575 71 637.76 71 Z" fill="url(#Obj_Gradient)"/></g><g id="id76_Graphic"><path d="M 1049.76 190.33823 L 1049.76 121.000084 C 1049.76 93.38576 1027.37427 71 999.7601 71 L 637.75995 71 C 610.14575 71 587.76 93.38576 587.76 121.000084 L 587.76 347.38101 C 709.3136 267.16309 893.76526 205.56306 1049.76 190.33823 Z" fill="url(#Obj_Gradient_2)"/></g><g id="id77_Graphic"><path d="M 637.75995 71 L 637.75995 71 C 610.14575 71 587.76 93.38556 587.76 121.00009 L 587.76 425.9999 C 587.76 425.9999 587.76 425.9999 587.76 425.9999 C 587.76 453.61444 610.14575 476 637.75995 476 L 999.7601 476 C 1027.37427 476 1049.76 453.61444 1049.76 425.9999 L 1049.76 121.00009 C 1049.76 93.38556 1027.37427 71 999.7601 71 Z M 646.25983 78.75009 L 990.7598 78.75009 C 1018.374 78.75009 1040.76025 101.13565 1040.76025 128.75017 L 1040.76025 416.00006 C 1040.76025 443.6142 1018.374 466.00015 990.7598 466.00015 L 646.25983 466.00015 C 618.64563 466.00015 596.2599 443.6142 596.2599 416.00006 C 596.2599 416.00006 596.2599 416.00006 596.2599 416.00006 L 596.2599 128.75017 C 596.2599 101.13565 618.64563 78.75009 646.25983 78.75009 C 646.25983 78.75009 646.25983 78.75009 646.25983 78.75009 Z" fill="url(#Obj_Gradient_3)"/></g></g></g></svg>
